{
  "accessors": [
    {
      "bufferView": 2,
      "componentType": 5126,
      "count": 548,
      "max": [
        4.1500020027160645,
        -0.02500000037252903,
        0.22499899566173553
      ],
      "min": [
        -4.1500020027160645,
        -5.4249992370605469,
        -0
      ],
      "type": "VEC3"
    },
    {
      "bufferView": 2,
      "byteOffset": 6576,
      "componentType": 5126,
      "count": 548,
      "max": [
        1,
        1,
        1
      ],
      "min": [
        -1,
        -1,
        -1
      ],
      "type": "VEC3"
    },
    {
      "bufferView": 3,
      "componentType": 5126,
      "count": 548,
      "max": [
        1,
        1,
        1,
        1
      ],
      "min": [
        -0.97156339883804321,
        -1,
        -1,
        1
      ],
      "type": "VEC4"
    },
    {
      "bufferView": 1,
      "componentType": 5126,
      "count": 548,
      "max": [
        0.52099597454071045,
        0.7929689884185791
      ],
      "min": [
        0.00024399999529123306,
        0.16821299493312836
      ],
      "type": "VEC2"
    },
    {
      "bufferView": 0,
      "componentType": 5125,
      "count": 2592,
      "max": [
        547
      ],
      "min": [
        0
      ],
      "type": "SCALAR"
    },
    {
      "bufferView": 2,
      "byteOffset": 13152,
      "componentType": 5126,
      "count": 232,
      "max": [
        3.8499979972839355,
        0.016793999820947647,
        0.19986100494861603
      ],
      "min": [
        -3.8499979972839355,
        -0.22304299473762512,
        -0.020146999508142471
      ],
      "type": "VEC3"
    },
    {
      "bufferView": 2,
      "byteOffset": 15936,
      "componentType": 5126,
      "count": 232,
      "max": [
        1,
        0.98200613260269165,
        0.9982532262802124
      ],
      "min": [
        -1,
        -0.98200613260269165,
        -0.98200613260269165
      ],
      "type": "VEC3"
    },
    {
      "bufferView": 3,
      "byteOffset": 8768,
      "componentType": 5126,
      "count": 232,
      "max": [
        0.75716030597686768,
        0.69438356161117554,
        0.99855530261993408,
        1
      ],
      "min": [
        -1,
        -0.69438356161117554,
        -0.99998325109481812,
        1
      ],
      "type": "VEC4"
    },
    {
      "bufferView": 1,
      "byteOffset": 4384,
      "componentType": 5126,
      "count": 232,
      "max": [
        0.5217289924621582,
        0.64209002256393433
      ],
      "min": [
        0.48364299535751343,
        0.55004900693893433
      ],
      "type": "VEC2"
    },
    {
      "bufferView": 0,
      "byteOffset": 10368,
      "componentType": 5125,
      "count": 1056,
      "max": [
        231
      ],
      "min": [
        0
      ],
      "type": "SCALAR"
    },
    {
      "bufferView": 2,
      "byteOffset": 18720,
      "componentType": 5126,
      "count": 189,
      "max": [
        4.1500020027160645,
        1.0875639915466309,
        5.2826881408691406
      ],
      "min": [
        -4.1500020027160645,
        -0.020975999534130096,
        -0.029589999467134476
      ],
      "type": "VEC3"
    },
    {
      "bufferView": 2,
      "byteOffset": 20988,
      "componentType": 5126,
      "count": 189,
      "max": [
        0.98078799247741699,
        0.99997985363006592,
        0.92629998922348022
      ],
      "min": [
        -0.98078799247741699,
        -0.98200613260269165,
        -0.99997985363006592
      ],
      "type": "VEC3"
    },
    {
      "bufferView": 3,
      "byteOffset": 12480,
      "componentType": 5126,
      "count": 189,
      "max": [
        1,
        0.96822237968444824,
        0.97737699747085571,
        1
      ],
      "min": [
        -0.9797816276550293,
        -0.96822243928909302,
        -0.97737705707550049,
        1
      ],
      "type": "VEC4"
    },
    {
      "bufferView": 1,
      "byteOffset": 6240,
      "componentType": 5126,
      "count": 189,
      "max": [
        0.99975597858428955,
        0.78930699825286865
      ],
      "min": [
        0.51513701677322388,
        0.16821299493312836
      ],
      "type": "VEC2"
    },
    {
      "bufferView": 0,
      "byteOffset": 14592,
      "componentType": 5125,
      "count": 852,
      "max": [
        188
      ],
      "min": [
        0
      ],
      "type": "SCALAR"
    }
  ],
  "asset": {
    "extras": {
      "author": "VISIONNEW (https://sketchfab.com/VISIONNEW)",
      "license": "CC-BY-4.0 (http://creativecommons.org/licenses/by/4.0/)",
      "source": "https://sketchfab.com/3d-models/laptop-dc3daa4c867a4582b6aaeeb484ca7bf4",
      "title": "LAPTOP"
    },
    "generator": "Sketchfab-5.22.0",
    "version": "2.0"
  },
  "bufferViews": [
    {
      "buffer": 0,
      "byteLength": 18000,
      "byteOffset": 0,
      "name": "floatBufferViews",
      "target": 34963
    },
    {
      "buffer": 0,
      "byteLength": 7752,
      "byteOffset": 18000,
      "byteStride": 8,
      "name": "floatBufferViews",
      "target": 34962
    },
    {
      "buffer": 0,
      "byteLength": 23256,
      "byteOffset": 25752,
      "byteStride": 12,
      "name": "floatBufferViews",
      "target": 34962
    },
    {
      "buffer": 0,
      "byteLength": 15504,
      "byteOffset": 49008,
      "byteStride": 16,
      "name": "floatBufferViews",
      "target": 34962
    }
  ],
  "buffers": [
    {
      "byteLength": 64512,
      "uri": "scene.bin"
    }
  ],
  "images": [
    {
      "uri": "textures/polySurface1SG_baseColor.jpeg"
    },
    {
      "uri": "textures/polySurface1SG_normal.png"
    },
    {
      "uri": "textures/polySurface1SG_metallicRoughness.png"
    },
    {
      "uri": "textures/polySurface1SG_emissive.jpeg"
    },
    {
      "uri": "textures/polySurface5SG1_baseColor.jpeg"
    },
    {
      "uri": "textures/polySurface5SG1_normal.png"
    },
    {
      "uri": "textures/polySurface5SG1_metallicRoughness.png"
    },
    {
      "uri": "textures/polySurface5SG1_emissive.jpeg"
    }
  ],
  "materials": [
    {
      "doubleSided": true,
      "emissiveFactor": [
        1,
        1,
        1
      ],
      "emissiveTexture": {
        "index": 3,
        "texCoord": 0
      },
      "name": "polySurface1SG",
      "normalTexture": {
        "index": 1,
        "scale": 1,
        "texCoord": 0
      },
      "occlusionTexture": {
        "index": 2,
        "strength": 1,
        "texCoord": 0
      },
      "pbrMetallicRoughness": {
        "baseColorFactor": [
          1,
          1,
          1,
          1
        ],
        "baseColorTexture": {
          "index": 0,
          "texCoord": 0
        },
        "metallicFactor": 0,
        "metallicRoughnessTexture": {
          "index": 2,
          "texCoord": 0
        },
        "roughnessFactor": 1
      }
    },
    {
      "doubleSided": true,
      "name": "polySurface5SG",
      "pbrMetallicRoughness": {
        "baseColorFactor": [
          1,
          1,
          1,
          1
        ],
        "metallicFactor": 0,
        "roughnessFactor": 0.59999999999999998
      }
    },
    {
      "doubleSided": true,
      "emissiveFactor": [
        1,
        1,
        1
      ],
      "emissiveTexture": {
        "index": 7,
        "texCoord": 0
      },
      "name": "polySurface5SG1",
      "normalTexture": {
        "index": 5,
        "scale": 1,
        "texCoord": 0
      },
      "occlusionTexture": {
        "index": 6,
        "strength": 1,
        "texCoord": 0
      },
      "pbrMetallicRoughness": {
        "baseColorFactor": [
          1,
          1,
          1,
          1
        ],
        "baseColorTexture": {
          "index": 4,
          "texCoord": 0
        },
        "metallicFactor": 0,
        "metallicRoughnessTexture": {
          "index": 6,
          "texCoord": 0
        },
        "roughnessFactor": 1
      }
    }
  ],
  "meshes": [
    {
      "primitives": [
        {
          "attributes": {
            "NORMAL": 1,
            "POSITION": 0,
            "TANGENT": 2,
            "TEXCOORD_0": 3
          },
          "indices": 4,
          "material": 0,
          "mode": 4
        }
      ]
    },
    {
      "primitives": [
        {
          "attributes": {
            "NORMAL": 6,
            "POSITION": 5,
            "TANGENT": 7,
            "TEXCOORD_0": 8
          },
          "indices": 9,
          "material": 1,
          "mode": 4
        }
      ]
    },
    {
      "primitives": [
        {
          "attributes": {
            "NORMAL": 11,
            "POSITION": 10,
            "TANGENT": 12,
            "TEXCOORD_0": 13
          },
          "indices": 14,
          "material": 2,
          "mode": 4
        }
      ]
    }
  ],
  "nodes": [
    {
      "children": [
        1
      ],
      "name": "RootNode (gltf orientation matrix)",
      "rotation": [
        -0.70710678118654746,
        -0,
        -0,
        0.70710678118654757
      ]
    },
    {
      "children": [
        2
      ],
      "name": "RootNode (model correction matrix)"
    },
    {
      "children": [
        3,
        4,
        5
      ],
      "name": "LAPTOP.obj.cleaner.materialmerger.gles"
    },
    {
      "mesh": 0,
      "name": ""
    },
    {
      "mesh": 1,
      "name": ""
    },
    {
      "mesh": 2,
      "name": ""
    }
  ],
  "samplers": [
    {
      "magFilter": 9729,
      "minFilter": 9987,
      "wrapS": 10497,
      "wrapT": 10497
    }
  ],
  "scene": 0,
  "scenes": [
    {
      "name": "OSG_Scene",
      "nodes": [
        0
      ]
    }
  ],
  "textures": [
    {
      "sampler": 0,
      "source": 0
    },
    {
      "sampler": 0,
      "source": 1
    },
    {
      "sampler": 0,
      "source": 2
    },
    {
      "sampler": 0,
      "source": 3
    },
    {
      "sampler": 0,
      "source": 4
    },
    {
      "sampler": 0,
      "source": 5
    },
    {
      "sampler": 0,
      "source": 6
    },
    {
      "sampler": 0,
      "source": 7
    }
  ]
}

